<?xml version="1.0" encoding="utf-8"?>
<!-- Generator: Adobe Illustrator 24.0.1, SVG Export Plug-In . SVG Version: 6.00 Build 0)  -->
<svg version="1.1" id="Слой_1" xmlns="http://www.w3.org/2000/svg" xmlns:xlink="http://www.w3.org/1999/xlink" x="0px" y="0px"
	 viewBox="0 0 529.7 139.8" style="enable-background:new 0 0 529.7 139.8;" xml:space="preserve">
<style type="text/css">
	.st0{fill:#474747;}
	.st1{fill-rule:evenodd;clip-rule:evenodd;fill:#474747;}
	.st2{fill-rule:evenodd;clip-rule:evenodd;fill:#FFFFFF;}
</style>
<title>Лого Женя</title>
<path class="st0" d="M410.3,126V73.6h6.8v52.5L410.3,126z M390.9,109.3h-10.5c-5.8,0-8.6,1.9-8.6,5.8c0,1.8,0.8,3.4,2.2,4.4
	c1.8,1.2,3.9,1.8,6.1,1.6c2.4,0.1,4.7-0.5,6.7-1.7c1.9-1.1,3.3-2.9,4.1-4.9L390.9,109.3z M391.3,126v-5c-1.2,1.8-2.9,3.2-4.8,4
	c-2.4,1-4.9,1.4-7.5,1.4c-4.2,0-7.6-1-10.1-3c-4.5-3.7-5.1-10.2-1.4-14.7c0.4-0.5,0.8-0.9,1.3-1.3c2.4-2,6.2-3,11.5-3h10.8v-1.3
	c0.2-2.5-0.8-5-2.5-6.7c-1.7-1.6-4.2-2.3-7.5-2.3c-2.2,0-4.4,0.4-6.5,1.1c-2,0.6-3.8,1.6-5.4,2.9l-2.8-5.1c2.1-1.6,4.4-2.8,6.9-3.6
	c2.8-0.8,5.7-1.3,8.6-1.2c5.2,0,9.2,1.3,11.9,3.8c2.8,2.5,4.1,6.3,4.1,11.4V126L391.3,126z M348,119.1c1.2,1.1,2.7,1.7,4.4,1.6
	c1.9,0,3.8-0.6,5.3-1.8l2.1,4.9c-1.1,0.9-2.3,1.6-3.7,2c-1.5,0.4-3,0.7-4.5,0.7c-3.8,0-6.7-1-8.8-3s-3.1-4.9-3.1-8.7V94.1h-6.4v-5.6
	h6.4v-8.2h6.8v8.2h10.7v5.6h-10.8v20.3C346.4,116.1,346.9,117.8,348,119.1z M325.8,126H319V88.6h6.8V126z M325.6,80
	c-0.9,0.9-2.1,1.3-3.3,1.3c-1.2,0-2.5-0.4-3.3-1.3c-0.9-0.8-1.3-1.9-1.3-3.1c0-1.2,0.5-2.3,1.3-3.1c0.9-0.9,2.1-1.3,3.3-1.3
	c1.2,0,2.4,0.4,3.3,1.2c0.9,0.8,1.3,1.9,1.3,3.1C326.9,78,326.5,79.2,325.6,80L325.6,80z M301,100.4c-1-1.9-2.6-3.5-4.5-4.6
	c-2-1.1-4.2-1.7-6.5-1.6c-2.2,0-4.5,0.5-6.4,1.7c-1.9,1.1-3.5,2.7-4.5,4.6c-1.1,2.1-1.7,4.5-1.7,6.9c0,2.4,0.5,4.8,1.6,6.9
	c1,2,2.6,3.6,4.5,4.7c4,2.2,8.9,2.2,12.9,0c1.9-1.1,3.5-2.7,4.5-4.7C303.2,109.9,303.2,104.7,301,100.4L301,100.4z M307.1,117.3
	c-1.6,2.8-3.9,5.2-6.8,6.8c-3,1.6-6.4,2.5-9.8,2.4c-2.6,0-5.1-0.5-7.4-1.5c-2.2-1-4.2-2.6-5.7-4.5v19.4h-6.8V88.6h6.5v5.9
	c1.5-2,3.4-3.7,5.7-4.7c2.4-1.1,5-1.6,7.7-1.6c3.4-0.1,6.8,0.8,9.8,2.4c2.8,1.6,5.2,3.9,6.8,6.7
	C310.4,103.6,310.4,111.1,307.1,117.3L307.1,117.3z M251.3,109.3h-10.5c-5.8,0-8.6,1.9-8.6,5.8c-0.1,1.8,0.8,3.4,2.2,4.5
	c1.8,1.2,3.9,1.8,6.1,1.6c2.4,0.1,4.7-0.5,6.7-1.7c1.9-1.1,3.3-2.9,4.1-4.9L251.3,109.3z M251.6,126v-5c-1.2,1.8-2.9,3.2-4.9,4
	c-2.4,1-4.9,1.4-7.5,1.4c-4.2,0-7.6-1-10.1-3c-4.5-3.7-5.1-10.3-1.4-14.7c0.4-0.5,0.8-0.9,1.2-1.3c2.4-2,6.2-3,11.5-3h10.8V103
	c0.2-2.5-0.8-5-2.5-6.7c-1.7-1.6-4.2-2.3-7.5-2.3c-2.2,0-4.4,0.4-6.5,1.1c-2,0.6-3.8,1.6-5.4,2.9l-2.8-5.1c2.1-1.6,4.4-2.8,6.9-3.6
	c2.8-0.8,5.7-1.3,8.6-1.2c5.2,0,9.2,1.3,11.9,3.8c2.8,2.5,4.1,6.4,4.1,11.5V126L251.6,126z M201.1,82.3c-3.5,0-6.9,0.8-10,2.5
	c-2.9,1.6-5.3,3.9-7,6.8c-3.3,6.1-3.3,13.4,0,19.5c1.7,2.9,4.1,5.2,7,6.8c3.1,1.7,6.5,2.5,10,2.5c5.3,0.1,10.4-2.1,14-5.9l4.6,4.5
	c-2.3,2.5-5.1,4.5-8.3,5.8c-3.4,1.4-7,2-10.6,2c-4.7,0.1-9.3-1.1-13.4-3.3c-3.9-2.1-7.1-5.2-9.4-9c-4.5-8.1-4.5-17.9,0-26
	c2.2-3.8,5.5-7,9.4-9c4.1-2.2,8.8-3.4,13.5-3.3c3.6,0,7.2,0.6,10.6,1.9c3.2,1.3,6,3.2,8.2,5.8l-4.6,4.5
	C211.5,84.3,206.4,82.1,201.1,82.3z M529.7,52.5h-18.3l-5.3-8.3l-5.9,8.3h-17.3l14.7-19.2l-14.2-19.5h18l5.5,8.2l5.8-8.2h16.8
	l-14.2,18.8L529.7,52.5z M484.7,52.5h-18.3l-5.3-8.3l-6,8.3h-17.3l14.7-19.2l-14.2-19.5h18.1l5.5,8.2l5.8-8.2h16.8l-14.2,18.8
	L484.7,52.5z M420.7,27.5c-2.3-2.5-6.2-2.7-8.7-0.3c-0.1,0.1-0.2,0.2-0.3,0.3c-1.3,1.6-1.9,3.6-1.8,5.6c-0.1,2,0.5,4,1.8,5.6
	c2.3,2.5,6.1,2.7,8.6,0.4c0.2-0.1,0.3-0.3,0.4-0.4c1.3-1.6,1.9-3.6,1.8-5.6C422.6,31.1,422,29.1,420.7,27.5L420.7,27.5z M435.8,43.5
	c-1.9,3.1-4.7,5.6-8,7.1c-7.4,3.4-15.9,3.4-23.2,0c-3.3-1.6-6-4.1-8-7.1c-3.9-6.4-3.9-14.4,0-20.7c2-3.1,4.7-5.5,8-7.1
	c7.4-3.4,15.8-3.4,23.2,0c3.3,1.6,6.1,4,8,7.1C439.6,29.1,439.6,37.1,435.8,43.5z M371.8,27.5c-2.3-2.5-6.2-2.7-8.7-0.3
	c-0.1,0.1-0.2,0.2-0.3,0.3c-1.3,1.6-1.9,3.6-1.8,5.6c-0.1,2,0.5,4,1.8,5.6c2.3,2.5,6.1,2.7,8.6,0.4c0.2-0.1,0.3-0.3,0.4-0.4
	c1.3-1.6,1.9-3.6,1.8-5.6C373.7,31.1,373.1,29.1,371.8,27.5L371.8,27.5z M374.1,52.5v-3.2c-2.3,2.6-5.9,3.9-10.6,3.9
	c-3.3,0-6.5-0.8-9.4-2.4c-2.9-1.6-5.2-4.1-6.8-7c-3.3-6.7-3.3-14.5,0-21.2c1.6-2.9,3.9-5.3,6.8-7c2.9-1.6,6.1-2.5,9.4-2.4
	c4.3,0,7.6,1.1,9.8,3.3V0h16v52.5H374.1z M323.5,37.2h-4c-3.3,0-4.9,1.1-4.9,3.3c0,0.9,0.3,1.7,1,2.2c0.8,0.6,1.8,0.9,2.8,0.9
	c2.3,0,4.4-1.5,5-3.7L323.5,37.2z M324.7,52.5v-5.1c-1.8,3.9-5.5,5.8-11,5.8c-2.7,0.1-5.4-0.5-7.8-1.6c-4.1-1.9-6.6-6-6.5-10.4
	c-0.2-3.5,1.5-6.8,4.4-8.7c2.9-2,7.4-3,13.3-3h6.4c-0.5-3-3-4.5-7.3-4.5c-1.8,0-3.6,0.3-5.3,0.8c-1.6,0.5-3.2,1.2-4.6,2.2l-5.1-10.5
	c2.5-1.5,5.2-2.6,8-3.2c3.1-0.8,6.2-1.2,9.4-1.2c6.8,0,12,1.5,15.6,4.6c3.6,3,5.4,7.7,5.4,14v20.8L324.7,52.5z M294.2,26.9
	c-5.5,0-8.2,2.8-8.2,8.4v17.2h-16V13.8h15.2V18c2.8-3.3,7-4.9,12.5-4.9v14.1C296.6,27.1,295.4,27,294.2,26.9L294.2,26.9z
	 M247.8,37.2h-4c-3.2,0-4.9,1.1-4.9,3.3c0,0.9,0.3,1.7,1,2.2c0.8,0.6,1.8,0.9,2.8,0.9c1.1,0,2.2-0.3,3-0.9c0.9-0.7,1.7-1.6,2-2.8
	L247.8,37.2z M249,52.5v-5.1c-1.8,3.9-5.5,5.8-11,5.8c-2.7,0.1-5.4-0.5-7.8-1.6c-4.1-1.9-6.7-6-6.5-10.4c-0.2-3.5,1.5-6.8,4.4-8.7
	c2.9-2,7.4-3,13.3-3h6.4c-0.5-3-2.9-4.5-7.3-4.5c-1.8,0-3.6,0.3-5.3,0.8c-1.7,0.5-3.2,1.2-4.6,2.2l-5.1-10.5c2.5-1.5,5.2-2.6,8-3.2
	c3.1-0.8,6.2-1.2,9.4-1.2c6.8,0,12,1.5,15.6,4.6c3.6,3,5.4,7.7,5.4,14v20.8L249,52.5z M203.1,17.4c-1.5-1.1-3.3-1.7-5.1-1.5h-6.1
	v11.6h6.1c1.8,0.1,3.6-0.4,5.1-1.5C205.4,23.5,205.4,19.8,203.1,17.4L203.1,17.4z M218.9,31.6c-1.9,2.9-4.7,5.2-7.9,6.5
	c-3.8,1.6-7.9,2.4-12,2.3h-7.1v12.2h-16.7V3h23.9c4.1-0.1,8.2,0.7,12,2.3c3.2,1.3,5.9,3.6,7.9,6.5C222.6,17.8,222.6,25.5,218.9,31.6
	L218.9,31.6z"/>
<polyline class="st1" points="62.5,6.6 0,125.6 125,125.6 62.5,6.6 "/>
<path class="st2" d="M9.9,119.6L62.5,19.5l52.6,100.1H9.9"/>
</svg>
