<svg width="24" height="24" viewBox="0 0 24 24" fill="none" xmlns="http://www.w3.org/2000/svg">
<mask id="mask0" mask-type="alpha" maskUnits="userSpaceOnUse" x="0" y="0" width="24" height="24">
<ellipse cx="12" cy="12" rx="12" ry="12" fill="#F7931A"/>
</mask>
<g mask="url(#mask0)">
<rect x="-5.33203" y="-0.380981" width="34.6667" height="24.7619" rx="2.47619" fill="#06A86E"/>
<mask id="mask1" mask-type="alpha" maskUnits="userSpaceOnUse" x="-6" y="-1" width="36" height="26">
<rect x="-5.33203" y="-0.380981" width="34.6667" height="24.7619" rx="2.47619" fill="white"/>
</mask>
<g mask="url(#mask1)">
<path fill-rule="evenodd" clip-rule="evenodd" d="M-5.33203 2.92038L6.22352 11.9997L-5.33203 21.0791V2.92038Z" fill="#FFBF2E"/>
<path fill-rule="evenodd" clip-rule="evenodd" d="M-6.98438 3.33322L4.15848 11.9999L-6.98438 20.6666V3.33322Z" fill="#262626"/>
<path fill-rule="evenodd" clip-rule="evenodd" d="M9.52431 9.52378L-2.03125 -0.380981H29.3338V9.52378H9.52431Z" fill="white"/>
<path fill-rule="evenodd" clip-rule="evenodd" d="M9.93992 7.87299L0.0351562 -0.380981H29.3367V7.87299H9.93992Z" fill="#F44E46"/>
<path fill-rule="evenodd" clip-rule="evenodd" d="M-2.03125 24.3809H29.3338V14.4761H9.52431L-2.03125 24.3809Z" fill="white"/>
<path fill-rule="evenodd" clip-rule="evenodd" d="M0.0351562 24.3811H29.3367V16.1272H9.93992L0.0351562 24.3811Z" fill="#072CB4"/>
</g>
</g>
</svg>
