<svg width="24" height="24" viewBox="0 0 24 24" fill="none" xmlns="http://www.w3.org/2000/svg">
<mask id="mask0" mask-type="alpha" maskUnits="userSpaceOnUse" x="0" y="0" width="24" height="24">
<ellipse cx="12" cy="12" rx="12" ry="12" fill="#F7931A"/>
</mask>
<g mask="url(#mask0)">
<rect x="-4.66797" y="0.0952759" width="33.3333" height="23.8095" rx="2.38095" fill="white"/>
<mask id="mask1" mask-type="alpha" maskUnits="userSpaceOnUse" x="-5" y="0" width="34" height="24">
<rect x="-4.66797" y="0.0952759" width="33.3333" height="23.8095" rx="2.38095" fill="white"/>
</mask>
<g mask="url(#mask1)">
<rect x="-4.66797" y="0.0952759" width="33.3333" height="23.8095" fill="#0A17A7"/>
<path d="M-4.66797 -0.30155H-5.74069L-4.92622 0.396568L0.490761 5.03969V6.24027L-4.89862 10.0898L-5.06479 10.2085V10.4127V11.2064V11.9224L-4.45765 11.5429L1.79505 7.63496H3.14137L8.525 11.4804L8.75565 11.1575L8.525 11.4804C8.63682 11.5603 8.77079 11.6032 8.90821 11.6032C9.52031 11.6032 9.80201 10.8417 9.33728 10.4433L4.45902 6.26197V5.06139L9.68222 1.33053C9.89079 1.18156 10.0146 0.941025 10.0146 0.684713V0.0952759V-0.620695L9.40743 -0.241231L3.15473 3.6667H1.80841L-3.64367 -0.227634L-3.74715 -0.30155H-3.87432H-4.66797Z" fill="#FF2E3B" stroke="white" stroke-width="0.793651"/>
<path fill-rule="evenodd" clip-rule="evenodd" d="M-4.66797 4.06353V7.23813H0.887587V11.2064C0.887587 11.6447 1.24292 12 1.68124 12H3.26854C3.70686 12 4.06219 11.6447 4.06219 11.2064V7.23813H9.61775C10.0561 7.23813 10.4114 6.8828 10.4114 6.44448V4.85718C10.4114 4.41886 10.0561 4.06353 9.61775 4.06353H4.06219V0.0952759H0.887587V4.06353H-4.66797Z" fill="white"/>
<path fill-rule="evenodd" clip-rule="evenodd" d="M-4.66797 4.85718H1.68124V4.06353V0.0952759H3.26854V4.06353V4.85718H9.61775V6.44448H3.26854V7.23813V11.2064H1.68124V7.23813V6.44448H-4.66797V4.85718Z" fill="#FF2E3B"/>
<path fill-rule="evenodd" clip-rule="evenodd" d="M19.142 20.73L18.0196 21.0588L18.3483 19.9364L18.0196 18.814L19.142 19.1427L20.2644 18.814L19.9356 19.9364L20.2644 21.0588L19.142 20.73Z" fill="#CA1931"/>
<path fill-rule="evenodd" clip-rule="evenodd" d="M19.142 5.65082L18.0196 5.97956L18.3483 4.85717L18.0196 3.73478L19.142 4.06352L20.2644 3.73478L19.9356 4.85717L20.2644 5.97956L19.142 5.65082Z" fill="#CA1931"/>
<path fill-rule="evenodd" clip-rule="evenodd" d="M23.9037 10.4127L22.7813 10.7414L23.1101 9.61904L22.7813 8.49665L23.9037 8.82539L25.0261 8.49665L24.6974 9.61904L25.0261 10.7414L23.9037 10.4127Z" fill="#CA1931"/>
<path fill-rule="evenodd" clip-rule="evenodd" d="M14.3803 11.9999L13.2579 12.3287L13.5866 11.2063L13.2579 10.0839L14.3803 10.4126L15.5027 10.0839L15.1739 11.2063L15.5027 12.3287L14.3803 11.9999Z" fill="#CA1931"/>
</g>
</g>
</svg>
