<svg width="24" height="24" viewBox="0 0 24 24" fill="none" xmlns="http://www.w3.org/2000/svg">
<mask id="mask0" mask-type="alpha" maskUnits="userSpaceOnUse" x="0" y="0" width="24" height="24">
<ellipse cx="12" cy="12" rx="12" ry="12" fill="#F7931A"/>
</mask>
<g mask="url(#mask0)">
<rect x="-5.02251" y="-0.0714271" width="34.0476" height="24.1429" rx="2.16667" fill="white" stroke="#F5F5F5" stroke-width="0.619048"/>
<mask id="mask1" mask-type="alpha" maskUnits="userSpaceOnUse" x="-6" y="-1" width="36" height="26">
<rect x="-5.02251" y="-0.0714271" width="34.0476" height="24.1429" rx="2.16667" fill="white" stroke="white" stroke-width="0.619048"/>
</mask>
<g mask="url(#mask1)">
<circle cx="12" cy="12" r="11.5" stroke="#F3F3F4"/>
<path fill-rule="evenodd" clip-rule="evenodd" d="M-5.33203 7.87302H29.3346V-0.380951H-5.33203V7.87302Z" fill="#FFA44A"/>
<path fill-rule="evenodd" clip-rule="evenodd" d="M-5.33203 24.3809H29.3346V16.1269H-5.33203V24.3809Z" fill="#1A9F0B"/>
<path d="M11.9996 14.8889C13.5951 14.8889 14.8885 13.5955 14.8885 12.0001C14.8885 10.4046 13.5951 9.11117 11.9996 9.11117C10.4041 9.11117 9.11074 10.4046 9.11074 12.0001C9.11074 13.5955 10.4041 14.8889 11.9996 14.8889Z" fill="#181A93" fill-opacity="0.15" stroke="#181A93" stroke-width="0.825397"/>
<path fill-rule="evenodd" clip-rule="evenodd" d="M12.0012 12.8254C12.457 12.8254 12.8266 12.4558 12.8266 12C12.8266 11.5441 12.457 11.1746 12.0012 11.1746C11.5453 11.1746 11.1758 11.5441 11.1758 12C11.1758 12.4558 11.5453 12.8254 12.0012 12.8254Z" fill="#181A93"/>
</g>
</g>
</svg>
