<svg width="24" height="24" viewBox="0 0 24 24" fill="none" xmlns="http://www.w3.org/2000/svg">
<mask id="mask0" mask-type="alpha" maskUnits="userSpaceOnUse" x="0" y="0" width="24" height="24">
<ellipse cx="12" cy="12" rx="12" ry="12" fill="#F7931A"/>
</mask>
<g mask="url(#mask0)">
<rect x="-1.33203" y="2.5882" width="26.6667" height="19.0476" rx="1.56863" fill="white"/>
<rect x="-1.33203" y="-0.548981" width="26.6667" height="25.098" fill="#E92434"/>
<path fill-rule="evenodd" clip-rule="evenodd" d="M16.7819 12.8439L15.6154 14.2581L15.6949 12.4266L13.9894 11.7542L15.7558 11.2638L15.8682 9.43398L16.8805 10.9624L18.6555 10.5039L17.5147 11.939L18.4993 13.4854L16.7819 12.8439Z" fill="white"/>
<path fill-rule="evenodd" clip-rule="evenodd" d="M15.24 15.6214C14.1943 16.9633 12.5629 17.8263 10.7299 17.8263C7.574 17.8263 5.01562 15.268 5.01562 12.1121C5.01562 8.95614 7.574 6.39777 10.7299 6.39777C12.563 6.39777 14.1945 7.26092 15.2402 8.60297C14.4334 8.0168 13.4191 7.66766 12.3175 7.66766C9.6876 7.66766 7.55562 9.65751 7.55562 12.1121C7.55562 14.5667 9.6876 16.5566 12.3175 16.5566C13.419 16.5566 14.4332 16.2075 15.24 15.6214Z" fill="white"/>
</g>
</svg>
