<svg width="24" height="24" viewBox="0 0 24 24" fill="none" xmlns="http://www.w3.org/2000/svg">
<mask id="mask0" mask-type="alpha" maskUnits="userSpaceOnUse" x="0" y="0" width="24" height="24">
<ellipse cx="12" cy="12" rx="12" ry="12" fill="#F7931A"/>
</mask>
<g mask="url(#mask0)">
<mask id="mask1" mask-type="alpha" maskUnits="userSpaceOnUse" x="0" y="0" width="24" height="24">
<circle cx="12" cy="12" r="12" fill="white"/>
</mask>
<g mask="url(#mask1)">
<circle cx="12" cy="12" r="12" fill="#F6941A"/>
<path d="M16.641 10.6936C16.8352 9.29255 15.8468 8.5394 14.4953 8.03697L14.9337 6.13911L13.8633 5.85121L13.4365 7.69905C13.1551 7.62337 12.8661 7.55198 12.5789 7.48123L13.0087 5.62122L11.9389 5.33331L11.5002 7.2305C11.2673 7.17325 11.0387 7.11667 10.8167 7.05711L10.8179 7.05119L9.34175 6.65338L9.057 7.88725C9.057 7.88725 9.85119 8.08368 9.83442 8.09586C10.2679 8.21266 10.3463 8.52228 10.3332 8.76774L9.8338 10.9298C9.86368 10.938 9.90241 10.9499 9.94509 10.9683C9.90942 10.9588 9.87131 10.9482 9.83198 10.938L9.13199 13.9668C9.07894 14.1089 8.9445 14.3221 8.64146 14.2412C8.65213 14.258 7.86343 14.0316 7.86343 14.0316L7.33203 15.354L8.72499 15.7287C8.98413 15.7988 9.23808 15.8722 9.48808 15.9413L9.04511 17.8608L10.1143 18.1488L10.553 16.2496C10.8451 16.3351 11.1286 16.4141 11.406 16.4885L10.9688 18.3787L12.0392 18.6666L12.4822 16.7507C14.3075 17.1235 15.68 16.9731 16.2578 15.1914C16.7233 13.7568 16.2346 12.9293 15.2742 12.3897C15.9736 12.2157 16.5004 11.7192 16.641 10.6936ZM14.1953 14.3948C13.8645 15.8294 11.6264 15.0539 10.9009 14.8594L11.4886 12.3163C12.2142 12.5118 14.541 12.8987 14.1953 14.3948ZM14.5264 10.6728C14.2246 11.9778 12.3618 11.3148 11.7575 11.1522L12.2905 8.84573C12.8947 9.00827 14.8407 9.31163 14.5264 10.6728Z" fill="white"/>
</g>
</g>
</svg>
